<svg width="17" height="17" viewBox="0 0 17 17" fill="none" xmlns="http://www.w3.org/2000/svg">
<path d="M7.08268 14.5699C4.65411 15.3897 2.6303 14.5699 1.41602 12.043" stroke="#291F1E" stroke-width="1.22458" stroke-linecap="round" stroke-linejoin="round"/>
<path d="M7.08464 15.5846V13.2881C7.08464 12.8644 7.2149 12.496 7.42492 12.1633C7.56899 11.935 7.47032 11.6112 7.21008 11.5396C5.05451 10.947 3.54297 9.99425 3.54297 6.83393C3.54297 6.0123 3.81217 5.23982 4.28538 4.5675C4.40315 4.40018 4.46202 4.31652 4.47618 4.24075C4.49034 4.16498 4.46573 4.06609 4.4165 3.86832C4.21615 3.06337 4.22914 2.2086 4.52983 1.43796C4.52983 1.43796 5.15118 1.23551 6.56541 2.119C6.8883 2.32072 7.04975 2.42158 7.19195 2.44414C7.33411 2.4667 7.52423 2.41944 7.90439 2.32492C8.42431 2.19568 8.96002 2.1263 9.5638 2.1263C10.1676 2.1263 10.7033 2.19568 11.2232 2.32492C11.6034 2.41944 11.7935 2.4667 11.9357 2.44414C12.0779 2.42158 12.2393 2.32072 12.5622 2.119C13.9764 1.23551 14.5978 1.43796 14.5978 1.43796C14.8985 2.2086 14.9114 3.06337 14.7111 3.86832C14.6619 4.06609 14.6372 4.16498 14.6514 4.24075C14.6656 4.31652 14.7244 4.40019 14.8422 4.5675C15.3154 5.23982 15.5846 6.0123 15.5846 6.83393C15.5846 9.99425 14.0731 10.947 11.9175 11.5396C11.6573 11.6112 11.5586 11.935 11.7027 12.1633C11.9127 12.496 12.043 12.8644 12.043 13.2881V15.5846" stroke="#291F1E" stroke-width="1.22458" stroke-linecap="round" stroke-linejoin="round"/>
</svg>
