<svg width="14" height="14" viewBox="0 0 14 14" fill="none" xmlns="http://www.w3.org/2000/svg">
<g clip-path="url(#clip0_145_123)">
<path fill-rule="evenodd" clip-rule="evenodd" d="M7.00005 3.40539C5.01478 3.40539 3.40544 5.01474 3.40544 7C3.40544 8.98521 5.01478 10.5946 7.00005 10.5946C8.98526 10.5946 10.5946 8.98521 10.5946 7C10.5946 5.01474 8.98526 3.40539 7.00005 3.40539ZM7.00005 9.3333C5.71136 9.3333 4.66669 8.28863 4.66669 7C4.66669 5.71132 5.71136 4.66665 7.00005 4.66665C8.28868 4.66665 9.33334 5.71132 9.33334 7C9.33334 8.28863 8.28868 9.3333 7.00005 9.3333Z" fill="#291F1E"/>
<path d="M10.7366 4.10337C11.2005 4.10337 11.5766 3.72731 11.5766 3.26337C11.5766 2.79945 11.2005 2.42339 10.7366 2.42339C10.2727 2.42339 9.89659 2.79945 9.89659 3.26337C9.89659 3.72731 10.2727 4.10337 10.7366 4.10337Z" fill="#291F1E"/>
<path fill-rule="evenodd" clip-rule="evenodd" d="M7 0C5.0989 0 4.86052 0.0080664 4.11389 0.0421367C3.36883 0.076125 2.85996 0.194441 2.4147 0.3675C1.95439 0.546383 1.56401 0.78575 1.17488 1.17491C0.785723 1.56404 0.546355 1.95442 0.367473 2.41473C0.194414 2.85996 0.0760977 3.36883 0.0421094 4.11389C0.00803906 4.86052 0 5.0989 0 7C0 8.90105 0.00803906 9.13943 0.0421094 9.88605C0.0760977 10.6311 0.194414 11.14 0.367473 11.5852C0.546355 12.0455 0.785723 12.4359 1.17488 12.8251C1.56401 13.2142 1.95439 13.4536 2.4147 13.6325C2.85996 13.8055 3.36883 13.9238 4.11389 13.9578C4.86052 13.9919 5.0989 13.9999 7 13.9999C8.90105 13.9999 9.13943 13.9919 9.88605 13.9578C10.6311 13.9238 11.14 13.8055 11.5852 13.6325C12.0455 13.4536 12.4359 13.2142 12.8251 12.8251C13.2142 12.4359 13.4536 12.0455 13.6325 11.5852C13.8055 11.14 13.9238 10.6311 13.9578 9.88605C13.9919 9.13943 13.9999 8.90105 13.9999 7C13.9999 5.0989 13.9919 4.86052 13.9578 4.11389C13.9238 3.36883 13.8055 2.85996 13.6325 2.41473C13.4536 1.95442 13.2142 1.56404 12.8251 1.17491C12.4359 0.78575 12.0455 0.546383 11.5852 0.3675C11.14 0.194441 10.6311 0.076125 9.88605 0.0421367C9.13943 0.0080664 8.90105 0 7 0ZM7 1.26129C8.86905 1.26129 9.09046 1.26839 9.82857 1.30208C10.511 1.33323 10.8817 1.44725 11.1284 1.54309C11.4551 1.67007 11.6883 1.82178 11.9332 2.06672C12.1782 2.31167 12.3299 2.54488 12.4569 2.87159C12.5527 3.11825 12.6667 3.4889 12.6979 4.17137C12.7316 4.90952 12.7387 5.13092 12.7387 7C12.7387 8.86905 12.7316 9.09046 12.6979 9.82857C12.6667 10.511 12.5527 10.8817 12.4569 11.1284C12.3299 11.4551 12.1782 11.6883 11.9332 11.9332C11.6883 12.1782 11.4551 12.3299 11.1284 12.4569C10.8817 12.5527 10.511 12.6667 9.82857 12.6979C9.09057 12.7316 8.86919 12.7387 7 12.7387C5.13075 12.7387 4.90943 12.7316 4.17137 12.6979C3.4889 12.6667 3.11825 12.5527 2.87159 12.4569C2.54486 12.3299 2.31167 12.1782 2.0667 11.9332C1.82175 11.6883 1.67005 11.4551 1.54309 11.1284C1.44722 10.8817 1.3332 10.511 1.30205 9.82857C1.26837 9.09046 1.26126 8.86905 1.26126 7C1.26126 5.13092 1.26837 4.90952 1.30205 4.17137C1.3332 3.4889 1.44722 3.11825 1.54309 2.87159C1.67005 2.54488 1.82175 2.31167 2.0667 2.06672C2.31167 1.82178 2.54486 1.67007 2.87159 1.54309C3.11825 1.44725 3.4889 1.33323 4.17137 1.30208C4.90952 1.26839 5.13092 1.26129 7 1.26129Z" fill="#291F1E"/>
</g>
<defs>
<clipPath id="clip0_145_123">
<rect width="14" height="14" fill="white"/>
</clipPath>
</defs>
</svg>
