<svg width="25" height="25" viewBox="0 0 25 25" fill="none" xmlns="http://www.w3.org/2000/svg">
<path d="M21.421 19.1879C21.5642 16.906 21.6395 14.5412 21.6395 12.1182C21.6395 11.1368 21.6272 10.165 21.603 9.20441C21.586 8.52958 21.367 7.87377 20.9676 7.3296C19.4451 5.25546 18.2322 3.96599 16.2333 2.42327C15.6839 1.99931 15.0099 1.76929 14.3162 1.75412C13.6205 1.73892 12.8941 1.7312 12.1181 1.7312C9.76902 1.7312 7.87409 1.80195 5.91312 1.93678C4.24491 2.05148 2.92 3.37951 2.81525 5.04838C2.67203 7.33034 2.59674 9.69507 2.59674 12.1182C2.59674 14.5412 2.67203 16.906 2.81525 19.1879C2.92 20.8569 4.24491 22.1848 5.91312 22.2994C7.87409 22.4343 9.76902 22.5051 12.1181 22.5051C14.4672 22.5051 16.3621 22.4343 18.3231 22.2994C19.9913 22.1848 21.3163 20.8569 21.421 19.1879Z" fill="#F2D492" stroke="#291F1E" stroke-width="1.73116"/>
<path d="M8.81808 12.1451H15.4181" stroke="#291F1E" stroke-width="1.73116" stroke-linecap="round"/>
<path d="M8.81808 6.92468H12.8009M8.81808 17.1763H15.3976H8.81808Z" stroke="#291F1E" stroke-width="1.73116" stroke-linecap="round" stroke-linejoin="round"/>
</svg>
